<svg width="71" height="44" viewBox="0 0 71 44" fill="none" xmlns="http://www.w3.org/2000/svg">
<path d="M22.134 37.9585C22.134 37.9585 19.4226 37.9585 19.4226 35.2472C19.4226 32.5359 22.134 24.4019 35.6906 24.4019C49.2472 24.4019 51.9585 32.5359 51.9585 35.2472C51.9585 37.9585 49.2472 37.9585 49.2472 37.9585H22.134ZM35.6906 21.6906C37.8479 21.6906 39.9168 20.8336 41.4422 19.3082C42.9676 17.7828 43.8246 15.7138 43.8246 13.5566C43.8246 11.3993 42.9676 9.33041 41.4422 7.80499C39.9168 6.27958 37.8479 5.42261 35.6906 5.42261C33.5333 5.42261 31.4644 6.27958 29.939 7.80499C28.4136 9.33041 27.5566 11.3993 27.5566 13.5566C27.5566 15.7138 28.4136 17.7828 29.939 19.3082C31.4644 20.8336 33.5333 21.6906 35.6906 21.6906Z" fill="black"/>
<path d="M6.02517 35.1174C6.02517 35.1174 4.01678 35.1174 4.01678 33.109C4.01678 31.1006 6.02517 25.0755 16.0671 25.0755C26.1091 25.0755 28.1175 31.1006 28.1175 33.109C28.1175 35.1174 26.1091 35.1174 26.1091 35.1174H6.02517ZM16.0671 23.0671C17.6651 23.0671 19.1976 22.4323 20.3276 21.3023C21.4575 20.1724 22.0923 18.6399 22.0923 17.0419C22.0923 15.4439 21.4575 13.9114 20.3276 12.7815C19.1976 11.6515 17.6651 11.0167 16.0671 11.0167C14.4691 11.0167 12.9366 11.6515 11.8067 12.7815C10.6767 13.9114 10.042 15.4439 10.042 17.0419C10.042 18.6399 10.6767 20.1724 11.8067 21.3023C12.9366 22.4323 14.4691 23.0671 16.0671 23.0671Z" fill="black"/>
<path d="M44.0252 34.7409C44.0252 34.7409 42.0168 34.7409 42.0168 32.7325C42.0168 30.7242 44.0252 24.699 54.0671 24.699C64.1091 24.699 66.1175 30.7242 66.1175 32.7325C66.1175 34.7409 64.1091 34.7409 64.1091 34.7409H44.0252ZM54.0671 22.6906C55.6651 22.6906 57.1976 22.0558 58.3276 20.9259C59.4575 19.7959 60.0923 18.2634 60.0923 16.6654C60.0923 15.0675 59.4575 13.5349 58.3276 12.405C57.1976 11.2751 55.6651 10.6403 54.0671 10.6403C52.4691 10.6403 50.9366 11.2751 49.8067 12.405C48.6767 13.5349 48.042 15.0675 48.042 16.6654C48.042 18.2634 48.6767 19.7959 49.8067 20.9259C50.9366 22.0558 52.4691 22.6906 54.0671 22.6906Z" fill="black"/>
</svg>
