<svg width="37" height="31" viewBox="0 0 37 31" fill="none" xmlns="http://www.w3.org/2000/svg">
<path d="M37 14.1537C37 21.9706 28.7166 28.3074 18.5 28.3074C16.6677 28.3096 14.843 28.1016 13.0726 27.6887C11.7221 28.2872 8.621 29.4357 3.404 30.1838C2.9415 30.2485 2.59 29.828 2.77269 29.4519C3.59131 27.7615 4.33131 25.509 4.55331 23.4547C1.7205 20.9677 0 17.7124 0 14.1537C0 6.33682 8.28337 0 18.5 0C28.7166 0 37 6.33682 37 14.1537ZM11.5625 14.1537C11.5625 13.6175 11.3189 13.1032 10.8852 12.724C10.4515 12.3448 9.86331 12.1318 9.25 12.1318C8.63669 12.1318 8.04849 12.3448 7.61482 12.724C7.18114 13.1032 6.9375 13.6175 6.9375 14.1537C6.9375 14.69 7.18114 15.2043 7.61482 15.5835C8.04849 15.9627 8.63669 16.1757 9.25 16.1757C9.86331 16.1757 10.4515 15.9627 10.8852 15.5835C11.3189 15.2043 11.5625 14.69 11.5625 14.1537ZM20.8125 14.1537C20.8125 13.6175 20.5689 13.1032 20.1352 12.724C19.7015 12.3448 19.1133 12.1318 18.5 12.1318C17.8867 12.1318 17.2985 12.3448 16.8648 12.724C16.4311 13.1032 16.1875 13.6175 16.1875 14.1537C16.1875 14.69 16.4311 15.2043 16.8648 15.5835C17.2985 15.9627 17.8867 16.1757 18.5 16.1757C19.1133 16.1757 19.7015 15.9627 20.1352 15.5835C20.5689 15.2043 20.8125 14.69 20.8125 14.1537ZM27.75 16.1757C28.3633 16.1757 28.9515 15.9627 29.3852 15.5835C29.8189 15.2043 30.0625 14.69 30.0625 14.1537C30.0625 13.6175 29.8189 13.1032 29.3852 12.724C28.9515 12.3448 28.3633 12.1318 27.75 12.1318C27.1367 12.1318 26.5485 12.3448 26.1148 12.724C25.6811 13.1032 25.4375 13.6175 25.4375 14.1537C25.4375 14.69 25.6811 15.2043 26.1148 15.5835C26.5485 15.9627 27.1367 16.1757 27.75 16.1757Z" fill="black"/>
</svg>
