<svg width="37" height="32" viewBox="0 0 37 32" fill="none" xmlns="http://www.w3.org/2000/svg">
<path d="M4.625 0C3.39837 0 2.22199 0.420316 1.35463 1.16848C0.487275 1.91665 0 2.93138 0 3.98945L0 27.9262C0 28.9842 0.487275 29.999 1.35463 30.7471C2.22199 31.4953 3.39837 31.9156 4.625 31.9156H32.375C33.6016 31.9156 34.778 31.4953 35.6454 30.7471C36.5127 29.999 37 28.9842 37 27.9262V3.98945C37 2.93138 36.5127 1.91665 35.6454 1.16848C34.778 0.420316 33.6016 0 32.375 0L4.625 0ZM27.8194 9.91379C28.1406 10.1906 28.3232 10.5649 28.3279 10.9565C28.3327 11.3481 28.1592 11.7257 27.8448 12.0083L18.6133 21.9619C18.4547 22.1093 18.2632 22.2276 18.0503 22.3098C17.8374 22.3919 17.6075 22.4361 17.3744 22.4398C17.1412 22.4436 16.9096 22.4067 16.6934 22.3314C16.4771 22.2562 16.2807 22.1441 16.1158 22.0018L9.99925 16.7238C9.82885 16.5868 9.69217 16.4217 9.59738 16.2381C9.50259 16.0546 9.45162 15.8565 9.44751 15.6557C9.4434 15.4548 9.48624 15.2552 9.57347 15.069C9.6607 14.8827 9.79053 14.7135 9.95522 14.5714C10.1199 14.4293 10.3161 14.3173 10.5321 14.2421C10.748 14.1669 10.9793 14.1299 11.2122 14.1335C11.4451 14.137 11.6747 14.181 11.8875 14.2627C12.1002 14.3445 12.2917 14.4624 12.4505 14.6094L17.2929 18.7843L25.3242 9.95767C25.4825 9.81 25.6738 9.69139 25.8865 9.60893C26.0992 9.52647 26.329 9.48186 26.5621 9.47777C26.7953 9.47367 27.027 9.51017 27.2434 9.58509C27.4598 9.66001 27.6565 9.7718 27.8217 9.91379H27.8194Z" fill="black"/>
</svg>
